<?xml version="1.0" encoding="UTF-8" standalone="no"?> <svg xmlns="http://www.w3.org/2000/svg" viewBox="0 0 64 64"><g id="_08-Presentation" data-name="08-Presentation"><path d="M37.75,38,33.96,51.27A.99611.99611,0,0,1,33,52H28a.997.997,0,0,1-.96-1.28L30.68,38Z" fill="#fcaa52"/><path d="M34.75,38,30.96,51.27A.99611.99611,0,0,1,30,52h3a.99611.99611,0,0,0,.96-.73L37.75,38Z" fill="#fc9e3a"/><path d="M50,52H45a.996.996,0,0,1-.96-.73L40.25,38h7.07l3.64,12.72A.997.997,0,0,1,50,52Z" fill="#fcaa52"/><path d="M50,52H47a.997.997,0,0,0,.96-1.28L44.32,38h3l3.64,12.72A.997.997,0,0,1,50,52Z" fill="#fc9e3a"/><path id="path22049" d="M36,2a1.0001,1.0001,0,0,0-1,1V7h8V3a1.00011,1.00011,0,0,0-1-1Z" fill="#fcaa52"/><path d="M42.00006,2h-4a1.00008,1.00008,0,0,1,1,1V7h4V3A1.00008,1.00008,0,0,0,42.00006,2Z" fill="#fc9e3a"/><path id="path22053" d="M18.99855,5.998A1.00014,1.00014,0,0,0,18.002,7.002V33.001H59.99759V7.002A1.00012,1.00012,0,0,0,59.001,5.998Z" fill="#fcb860"/><path d="M59.001,5.998h-4a1.00017,1.00017,0,0,1,.99658,1.004V33.001h4V7.002A1.00017,1.00017,0,0,0,59.001,5.998Z" fill="#fcaa52"/><path id="path22038" d="M55.00005,10a1,1,0,0,1,.9961,1.00394V33H22.004V11.00392A1.00018,1.00018,0,0,1,23.00005,10Z" fill="#59e78b"/><path d="M23,10h4a1.00021,1.00021,0,0,0-.99609,1.00391V33h-4V11.00391A1.00021,1.00021,0,0,1,23,10Z" fill="#31e170"/><path id="path22057" d="M16.99805,31.997a1.00009,1.00009,0,0,0-.99655,1.00365V37.002a1.00012,1.00012,0,0,0,.99655.99656H61.00149a1.00013,1.00013,0,0,0,.99656-.99656V33.001A1.00012,1.00012,0,0,0,61.0018,31.997H16.99805Z" fill="#fcb860"/><polygon points="37.75 38 37.18 40 30.11 40 30.68 38 37.75 38" fill="#fc9e3a"/><polygon points="47.89 40 40.82 40 40.25 38 47.32 38 47.89 40" fill="#fc9e3a"/><path d="M61.00183,31.997h-4a1.00014,1.00014,0,0,1,.99622,1.004v4.001a1.00018,1.00018,0,0,1-.99652.99659h4a1.00018,1.00018,0,0,0,.99652-.99659V33.001A1.00014,1.00014,0,0,0,61.00183,31.997Z" fill="#fcaa52"/><path id="path22001" d="M10.99658,48.001a8.99984,8.99984,0,0,0-8.99853,8.99852v4.001a1.00011,1.00011,0,0,0,1.00364.99656H35.00248a1.00006,1.00006,0,0,0,.99658-.99656v-4.001A8.99987,8.99987,0,0,0,27.00054,48.001Z" fill="#fc6067"/><path d="M27.00055,48.001h-4a8.99985,8.99985,0,0,1,8.99853,8.99853v4.001a1.00008,1.00008,0,0,1-.99658.99652h4a1.00008,1.00008,0,0,0,.99658-.99652v-4.001A8.99985,8.99985,0,0,0,27.00055,48.001Z" fill="#fb4b5b"/><path id="path5864-7" d="M36.99954,16.99484a1,1,0,0,0-.93749.64961L34.05418,23.0037,32.9469,19.68185a1.00026,1.00026,0,0,0-.94489-.68652h-2.0005a1.00025,1.00025,0,1,0,0,2.00049h1.27707l1.77165,5.315a1.00012,1.00012,0,0,0,1.88978.03778l2.75346-7.35236H47.99858a1.00025,1.00025,0,0,0,0-2.0005Z" fill="#e7eaef"/><path id="path5866-7" d="M44.29285,21.29121l-4.001,4.001a1.0001,1.0001,0,1,0,1.41733,1.40994l4.001-4.001a.99964.99964,0,1,0-1.41732-1.40988Z" fill="#e7eaef"/><path id="path5868-7" d="M40.29188,22.701l4.001,4.001a1.0001,1.0001,0,1,0,1.41733-1.40994l-4.001-4.001A.99973.99973,0,1,0,40.29189,22.701Z" fill="#e7eaef"/><path id="path16041" d="M14,44V48.998a1.02491,1.02491,0,0,0,.05249.31633S15.33116,52.998,18.99784,52.998,23.951,49.31437,23.951,49.31437a1.00886,1.00886,0,0,0,.0525-.31633V44Z" fill="#fdca99"/><path id="path21946" d="M25.99658,33.99752V39.999h1.00395a3.00074,3.00074,0,0,0,0-6.00148Z" fill="#fdca99"/><path id="path21942" d="M10.99658,33.99752a3.00074,3.00074,0,0,0,0,6.00148h1.00395V33.99752Z" fill="#fdd5a6"/><path id="path21926" d="M18.002,22.002A8.999,8.999,0,0,0,9.00393,31v4.002A1.0001,1.0001,0,0,0,10,35.99807H27.9961A1.00008,1.00008,0,0,0,29,35.002V31A8.999,8.999,0,0,0,20.002,22.002Z" fill="#565d69"/><path d="M20.002,22.002H18.002a9.07358,9.07358,0,0,0-.99994.05866A8.998,8.998,0,0,1,25.00006,31v4.002a1.00012,1.00012,0,0,1-1.004.9961h4a1.00012,1.00012,0,0,0,1.004-.9961V31A8.99907,8.99907,0,0,0,20.002,22.002Z" fill="#4e5460"/><path id="path21933" d="M22.98441,31a1.00005,1.00005,0,0,0-.502.14061,26.2436,26.2436,0,0,1-2.87891,1.43946A15.67794,15.67794,0,0,1,14,33.998H12a1.0001,1.0001,0,0,0-1.00391.99627V37.998a8.002,8.002,0,1,0,16.00392,0V35.00192a1,1,0,0,0-.2948-.709l-2.99611-2.99808a1.00006,1.00006,0,0,0-.72461-.29482Z" fill="#fdd5a6"/><path d="M26.70526,34.293l-2.99609-2.99811a1.00012,1.00012,0,0,0-.72461-.2948L22.98444,31a1.00005,1.00005,0,0,0-.502.14062s-.76275.45588-1.92218,1.00593l2.145,2.14642a1,1,0,0,1,.2948.70892v2.99616a8.00519,8.00519,0,0,1-6.002,7.73907,7.97152,7.97152,0,0,0,10.002-7.73907V35.00189A1,1,0,0,0,26.70526,34.293Z" fill="#fdca99"/></g></svg>