<svg xmlns="http://www.w3.org/2000/svg" viewBox="0 0 1080 1080"><g data-name="No Email"><path fill="#ffc804" d="M1011.38 656c-92.25 65.55-88 62.45-88 62.68-.37.37-1.86 277.7-1.86 281.27-23.32 39.71-308.17 7.88-317.6-9.65 0 0 7-88.43 22-210.72-21.79-1.61-44.82-9.69-64.69-18.52 9.23-30.17 48.93-156 74.62-174.37C664.21 566.5 711.32 558 746 555.23c-1.18 8.11-2 16-.8 24.19 1.39 9.74 5.26 15.34 11.51 16.65 23.63 5 51.58-21.27 66.7-40.18 17.56 2.64 57.39 7.31 74.81 3.73 23.79-4.87 37.17-10.13 51.25-16.92l-.24 3.43c-2.51 36.09 39 101.78 58.49 108.62Z"/><path fill="#59c5d0" d="M444.45 511.47v146.68H20.17V511.47a88.09 88.09 0 0 1 88.09-88.08h248.12a88.08 88.08 0 0 1 88.07 88.08Z"/><path fill="#e65c39" d="M117.43 310.2h16.05v217.08h-16.05z"/><circle cx="125.46" cy="536.58" r="21.12" fill="#e65c39"/><path fill="#e65c39" d="M81.34 310.2h52.14v32.94H81.34z"/><path fill="#5e1776" d="M444.45 511.47v146.68H268.28V511.47a88.09 88.09 0 0 1 176.17 0Z"/><path fill="#59c5d0" d="m345.56 759.83-77.28-102.18h176.17l77.28 102.18c25.62 33.89 7 61.37-41.69 61.37-47.75 0-108.4-26.87-134.48-61.37Z"/><path fill="#fff" d="M442.78 550.92a276 276 0 0 1-123.64-29.71c-30.33-15.32-47.75-31.15-47.92-31.31a2 2 0 1 1 2.7-2.94c.17.15 17.27 15.68 47.15 30.75 27.54 13.88 71.87 30.22 126.78 29.16a2 2 0 0 1 .08 4c-1.73.03-3.45.05-5.15.05Z"/><path fill="#fff" d="M436.16 610.37a2.31 2.31 0 0 1-.52-.06c-26.23-7-67.78-24.84-116.83-69.62A430.53 430.53 0 0 1 271 489.64a2 2 0 1 1 3.18-2.42c.72.95 73 95.19 162.52 119.22a2 2 0 0 1-.52 3.93Z"/><path fill="#fff" d="M381.25 646.69a2 2 0 0 1-1.11-.33c-36.11-24.22-63.95-65.71-80.95-96.25a462.48 462.48 0 0 1-28.5-61 2 2 0 0 1 3.76-1.35c.39 1.1 40 109.73 107.92 155.28a2 2 0 0 1 .54 2.78 2 2 0 0 1-1.66.87Z"/><path fill="#fff" d="M317.9 660.21a2 2 0 0 1-1.65-.87c-13.81-20.19-25.7-55.08-35.33-103.69-7.15-36.1-10.31-66.71-10.34-67a2 2 0 1 1 4-.4c.12 1.21 12.72 121.68 45 168.85a2 2 0 0 1-.52 2.78 2 2 0 0 1-1.16.33Z"/><path fill="#fff" d="M284 564a2.07 2.07 0 0 1-1-.27 2 2 0 0 1-.72-2.74c4.91-8.4 12-11.31 20.75-8.5 1.77-9.7 7.39-14.86 16.74-15.36-.15-3.24.22-7.13 2.68-10 2.12-2.47 5.37-3.76 9.91-3.94a2 2 0 0 1 .16 4c-3.38.13-5.68 1-7 2.55-1.55 1.79-2 4.69-1.56 9.13l.24 2.26h-2.28c-9.33-.22-14.16 4.36-15.23 14.36l-.29 2.69-2.49-1.07c-8-3.43-13.77-1.55-18.13 5.93a2 2 0 0 1-1.78.96ZM290.78 592.54a2 2 0 0 1-1.62-3.17c8.14-11.21 17.69-15.22 29.14-12.21 2.81-9.67 8.33-21.13 22.59-21.67-2.15-12.48 2.41-20.2 13.9-23.56a2 2 0 1 1 1.12 3.84c-10.06 3-13.33 9.51-10.62 21.29l.59 2.57-2.64-.13c-11.05-.54-17.72 5.83-21.62 20.66l-.54 2.06-2-.67c-10.62-3.48-19.1-.25-26.66 10.17a2 2 0 0 1-1.64.82ZM299.41 624.45a2 2 0 0 1-1.58-3.22c11.69-15.16 24.52-21.2 39.17-18.41 3.07-11.3 10-24.85 32-24.53-5.16-16.22-1-28.94 12.25-37.84a2 2 0 1 1 2.22 3.32c-12.65 8.48-15.75 19.9-9.75 35.93l1.09 2.91-3.1-.21c-17.72-1.17-27.09 5.78-31.33 23.25l-.47 1.94-1.94-.46c-13.95-3.36-25.7 1.9-37 16.54a2 2 0 0 1-1.56.78Z"/><path fill="#5e1776" d="M172.62 658.21h52.37v353.89h-52.37z"/><path fill="#fff" d="M613.77 847.94c-8.74 8.92-22.8 25.34-49 24.49C515.91 870.86 400 741.9 400 741.9c-20.15 8.68-45.79-11.27-45.79-11.27s-7 5.75-11.21 4.37c-9.92-3.23-2.84-11.23-2.49-11.62-.46.25-11.46 6.35-15.13-.1-2.49-4.36.95-12.12 7.92-17.08-5.54 1.18-15.09 2-15.74-2.65-.52-3.74 4.17-15.56 22.74-14.26-12.7-3.66-28.13-9.75-22.42-16.64 9.28-11.2 66.46 2.5 106.3 21.3 32.59 15.36 108 63.79 139.64 84 2.93-5.74 4.62-9.31 6.22-13.1 20.6 7.74 40.1 13.91 55.84 14.74l-6.94 61.88Z"/><path fill="#5e1776" d="M388.87 746.06c-6.16 0-12.94-1.58-20.12-4.71a83.78 83.78 0 0 1-14.51-8.22c-2.45 1.76-7.8 5.09-11.86 3.77-3.59-1.17-5.75-3.09-6.43-5.69a7.46 7.46 0 0 1 .07-3.79l-1.19.32c-7.05 1.7-10-1.45-11.19-3.47-2.31-4.06-.68-10.13 3.62-15.22-3.37.2-7.14 0-9.45-1.66a5.14 5.14 0 0 1-2.23-3.57c-.33-2.36.8-6.49 4.07-10s9.41-7.34 20.82-6.53a2 2 0 0 1 1.86 2.13 2 2 0 0 1-2.14 1.86c-9.84-.7-15 2.48-17.62 5.27s-3.17 5.73-3 6.71a1.15 1.15 0 0 0 .57.85c1.82 1.28 7.08 1.33 12.78.12a2 2 0 0 1 1.57 3.59c-6.53 4.65-9.11 11.35-7.35 14.46.4.69 1.61 2.81 6.78 1.56a23.8 23.8 0 0 0 5.64-2.22 2 2 0 0 1 2.46 3.1c-.72.79-2.68 3.51-2.16 5.48.31 1.19 1.59 2.17 3.79 2.88s6.77-1.91 9.33-4a2 2 0 0 1 2.49 0c.25.19 25 19.11 43.77 11a2 2 0 1 1 1.58 3.67 29.82 29.82 0 0 1-11.95 2.31Z"/><path fill="#5e1776" d="M577.48 788.6a2 2 0 0 1-1-.28c-2-1.2-8.05-5-17.14-10.86-34-21.72-104.64-66.92-136-81.71-41.8-19.72-96.18-31.14-103.91-21.83a2.27 2.27 0 0 0-.64 2.39c1.11 3.11 12.05 9.82 36.69 14.63a2 2 0 0 1 .64 3.68c-7 4.2-16 11.68-14.47 14.81 1 2.14 8.27 4.36 21.12 2.59a2 2 0 0 1 2.09 1.15c0 .1 5.63 11.37 27.74 13.81a2 2 0 1 1-.44 4c-20.21-2.22-27.94-11.34-30.18-14.8-5.47.63-20.68 1.74-23.93-5-2.85-5.9 6.06-13.29 11.91-17.34-3.44-.79-8.34-2-13.33-3.56-12.94-4-20-8.15-21.6-12.61a6.16 6.16 0 0 1 1.32-6.29c10.93-13.19 72.66 3.77 108.7 20.76 31.58 14.9 102.4 60.19 136.43 82 8.74 5.58 15 9.62 17 10.79a2 2 0 0 1-1 3.72ZM566.75 874.46h-2c-49.16-1.59-161.45-125.91-166.2-131.2a2 2 0 1 1 3-2.67c1.15 1.28 115.89 128.34 163.36 129.87 19.89.65 32.46-9 41.19-17.48a2 2 0 0 1 2.78 2.87c-9.05 8.71-21.88 18.61-42.13 18.61Z"/><path fill="#fff" d="M340.34 689.3ZM340.34 689.3ZM1002 637.89l-7.6 6.7c-29.64-32.65-43.06-65.2-45.33-97.71 0 0 5.28-2.72 12.39-7.32-32.44-42.87-83.13-123.32-83.13-123.32s-70.62-22.24-67.27-27.62 25.52-4.16 25.52-4.16-37.46-12.9-32.76-19.68c4.59-6.63 32.64 3.67 34 4.16-1.47-.79-34.84-18.54-29.19-26.71S847.14 353 848 353.46c-.87-.66-30.9-23.47-26-30.54s56 26.42 56.93 27c-.23-.64-10.35-27.91-3.57-32.19S915.07 361 915.07 361c39.16 37.59 103.74 102.94 138.08 160.11 0-.04 33.93 52.03-51.15 116.78Z"/><path fill="#5e1776" d="M603.92 992.34h-.2a2 2 0 0 1-1.79-2.19c.13-1.3 13.38-132.73 37.36-337a2 2 0 1 1 4 .46c-24 204.29-37.22 335.69-37.35 337a2 2 0 0 1-2.02 1.73ZM921.52 1002a2 2 0 0 1-2-2c0-11.52 1.28-216.47 1.54-257.43a2 2 0 0 1 2-2 2 2 0 0 1 2 2c-.26 41-1.54 245.9-1.54 257.41a2 2 0 0 1-2 2.02ZM1010.87 657.38c-3.41 0-7.58-2-12.44-6.1C976.52 633 945.05 577.91 947.27 546c-10.69 5.11-25 10.77-48.63 15.59-12.86 2.63-36.69.89-54.42-1a2 2 0 0 1 .43-4c17.45 1.89 40.83 3.61 53.19 1.09 25.65-5.24 40.15-11.47 50.94-16.87a2 2 0 0 1 2.87 2.12c-2.24 13.43 3.12 34.27 14.71 57.19 10.21 20.18 23.8 39.06 34.64 48.11 4.76 4 8.79 5.79 11.07 5a2 2 0 0 1 1.35 3.77 7.62 7.62 0 0 1-2.55.38Z"/><path fill="#5e1776" d="M606.11 778.64a1.74 1.74 0 0 1-.45-.06c-22.86-5.27-45-15.58-45.23-15.68a2 2 0 0 1-1.07-2.39c1.9-6.31 46.73-155 75.36-175.4 27.6-19.72 71.3-27.45 94.89-30.31a2 2 0 1 1 .48 4c-23.21 2.81-66.17 10.39-93 29.59-26 18.55-68.24 154.89-73.35 171.63 5.41 2.41 23.9 10.32 42.86 14.7a2 2 0 0 1-.45 3.95Z"/><path fill="#fff" d="m822.81 446.36.62 109.54s-36 46.6-66.69 40.17c-17.72-3.71-10.67-40.82-10.67-40.82l4.93-50.68Z"/><path fill="#5e1776" d="M762.75 598.68a30.88 30.88 0 0 1-6.42-.65c-19.14-4-12.72-40.48-12.24-43.06l4.91-50.59a2 2 0 1 1 4 .39l-4.93 50.68a1.13 1.13 0 0 1 0 .18 91.7 91.7 0 0 0-1.27 18.61c.56 11.86 4.06 18.55 10.39 19.87 27.35 5.74 60.18-33.82 64.27-38.91l-.15-27.45a2 2 0 0 1 2-2 2 2 0 0 1 2 2l.16 28.15a2 2 0 0 1-.42 1.24c-1.44 1.79-32.56 41.54-62.3 41.54Z"/><path fill="#fff" d="M786 509.81c-23 10.21-48.86 13.89-70.56 9.12-47.93-10.52-36.76-74.68-33.16-115.3 5.89-66.51 54.64-81.07 101.49-68.32s73.74 63.77 60.08 114c-3.78 13.87-11.66 26.2-22.09 36.55Z"/><path fill="#5e1776" d="M735.32 523a95.49 95.49 0 0 1-20.32-2.11c-45.42-10-39.86-65.57-35.81-106.17.39-3.9.77-7.67 1.09-11.26 2.54-28.66 12.91-49.52 30.84-62 18.64-13 44.62-15.85 73.16-8.08 47.84 13 75.42 65.24 61.49 116.4-3.77 13.64-11.36 26.22-22.65 37.45a2 2 0 0 1-2.82-2.84c10.79-10.7 18-22.7 21.57-35.66 13.35-49-13-99.05-58.68-111.49-27.38-7.45-52.18-4.79-69.82 7.5-16.91 11.78-26.72 31.65-29.15 59.07-.32 3.6-.7 7.39-1.09 11.31-2 20.37-4.34 43.46-.79 62.95 4 22.12 15 34.85 33.48 38.91 20.86 4.58 46.12 1.3 69.32-9a2 2 0 1 1 1.62 3.65A128.67 128.67 0 0 1 735.32 523Z"/><path fill="#5e1776" d="M679.94 475.43c-17.64 32.38-4.37 65.92 45.89 62.51 78.75-5.35 79.12-58.29 79.12-58.29s-19.52 14.46-48.24 15.21c-16.25.42-28.06-18.58-44.67-18.58-11.55 0-13.89 7.6-22.24 7.6-7.61 0-9.86-8.45-9.86-8.45Z"/><path fill="#5e1776" d="M719.08 540.17c-20.18 0-35.32-6.46-43.05-18.52-8.09-12.62-7.3-29.82 2.15-47.18a2 2 0 0 1 2-1 2 2 0 0 1 1.69 1.47c.08.28 2 7 7.92 7 3.27 0 5.42-1.34 8.13-3 3.43-2.14 7.31-4.56 14.12-4.56 8.87 0 16.3 4.94 23.49 9.72 7 4.66 13.59 9.05 21.13 8.86 27.77-.73 46.91-14.67 47.1-14.81a2 2 0 0 1 2.1-.18 2 2 0 0 1 1.09 1.8c0 .56-.21 14-10.4 28.28-16.88 23.62-47.7 30.43-70.58 32q-3.54.12-6.89.12ZM679.85 480c-7 14.76-7.18 29-.45 39.47 7.76 12.11 24.2 18 46.3 16.45 31.46-2.14 54.79-12.55 67.46-30.12a53.15 53.15 0 0 0 9.36-22.19 95.29 95.29 0 0 1-45.76 13.23c-8.79.2-16.24-4.73-23.45-9.53-7-4.66-13.6-9.05-21.27-9.05-5.67 0-8.89 2-12 4-2.87 1.79-5.83 3.65-10.25 3.65a11.7 11.7 0 0 1-9.94-5.91Z"/><path fill="#fff" d="M718.19 495.36a5.49 5.49 0 0 1-3.72-1.33 2 2 0 1 1 2.65-3 2.27 2.27 0 0 0 2.06.17 7.71 7.71 0 0 0 3.53-2.38 2 2 0 0 1 3 2.66 11.78 11.78 0 0 1-5.45 3.57 7.67 7.67 0 0 1-2.07.31Z"/><path fill="#5e1776" d="M710.68 465.33c-2.41 0-7.8-.48-9.7-4.65-.59-1.29-1.68-6.18 9.09-15.08a2 2 0 0 1 2.55 3.09c-4.75 3.93-8.64 8.95-8 10.33 1 2.26 5.43 2.41 6.89 2.29a2 2 0 0 1 .36 4c-.09-.01-.52.02-1.19.02ZM734.72 447a2.07 2.07 0 0 1-.35 0 2 2 0 0 1-1.62-2.32l1.17-6.69a2 2 0 0 1 3.94.69l-1.18 6.7a2 2 0 0 1-1.96 1.62ZM695 440a2.07 2.07 0 0 1-.35 0 2 2 0 0 1-1.63-2.31l1.18-6.7a2 2 0 0 1 3.94.7l-1.14 6.7a2 2 0 0 1-2 1.61ZM744.62 420.48a2 2 0 0 1-1.83-1.2c-1.61-3.68-5.46-3-5.89-2.93a2 2 0 0 1-.84-3.91 9.16 9.16 0 0 1 10.39 5.24 2 2 0 0 1-1 2.63 2.05 2.05 0 0 1-.83.17ZM695.94 412.44a2 2 0 0 1-1.59-3.21 9.17 9.17 0 0 1 11.31-2.74 2 2 0 1 1-1.76 3.59c-3.6-1.76-6.11 1.24-6.38 1.59a2 2 0 0 1-1.58.77Z"/><path fill="#5e1776" d="M809.46 384.77c7.52 14.85-.86 67 1.62 72.84 1.17 2.74 11.56-9.49 16.27-12.58 16.45 4.23-17.64 67-6.81 67.85 16 1.18 75.83-104.18 61.56-156.74-15-47.67-56.06-58-112.62-60.63-43.93.19-95 26.1-84.19 88.7 9.29-32.95 20.77-18 36.32-15.49 32.66 5.28 73.68-11.92 87.85 16.05Z"/><path fill="#5e1776" d="M820.81 514.88h-.42a3.93 3.93 0 0 1-3-1.74c-2.5-3.71.13-12.52 5-27.77 4.39-13.77 9.86-30.91 6.64-36.73a3.27 3.27 0 0 0-1.32-1.36c-1.6 1.23-3.76 3.29-5.86 5.3-6 5.71-8.47 7.84-10.67 7.38a2.6 2.6 0 0 1-1.88-1.56c-1-2.47-.66-9.23.18-22 1.17-17.66 2.76-41.85-1.75-50.75-8.82-17.42-28.65-16.15-51.6-14.69-11.61.75-23.61 1.51-34.78-.29a55.73 55.73 0 0 1-10.41-3c-5.17-1.89-9.64-3.52-13.34-1.63-4 2-7.34 8.15-10.33 18.73a2 2 0 0 1-2 1.45 2 2 0 0 1-1.87-1.65c-4.24-24.59.45-45.21 13.94-61.29 15.52-18.5 42.51-29.62 72.21-29.75h.1c33.19 1.53 55.6 5.73 72.64 13.6 20.9 9.65 34.58 25.49 41.8 48.42 11.85 43.66-25.6 120.64-48.15 148-6.39 7.61-11.32 11.33-15.13 11.33Zm6.54-71.88a2.2 2.2 0 0 1 .5.06 7.12 7.12 0 0 1 4.62 3.6c4.06 7.34-1.22 23.88-6.33 39.89-2.85 8.95-7.17 22.47-5.47 24.32 1.85.12 5.91-2.43 12.1-9.94 12.46-15.09 26.78-41.45 36.49-67.15 12-31.62 15.83-59 10.91-77.14-14.37-45.63-53-56.48-110.74-59.16-28.51.14-54.35 10.72-69.1 28.32-11.12 13.25-15.87 29.87-14.18 49.49 2.72-6.8 5.83-10.95 9.57-12.86 5.25-2.69 10.73-.69 16.54 1.44a53.9 53.9 0 0 0 9.67 2.85c10.73 1.72 22.5 1 33.89.24 23.35-1.49 45.41-2.89 55.42 16.87 5 9.88 3.44 33.69 2.17 52.82-.47 7.21-1 15.23-.74 18.68 1.67-1.22 4.4-3.83 6.36-5.69a63.13 63.13 0 0 1 7.22-6.32 2 2 0 0 1 1.1-.32Z"/><path fill="#fff" d="M819.26 486.23c3.42 4.34 7.86 8.11 13.6 9.67 14.27 3.88 30.18-8.1 35.24-26.67 3.9-14.23-6.44-30.61-21.31-30.23a41.34 41.34 0 0 0-19.44 6Z"/><path fill="#5e1776" d="M838.4 498.64a23.1 23.1 0 0 1-6.06-.81c-5.47-1.49-10.4-5-14.65-10.36a2 2 0 1 1 3.14-2.48c3.71 4.7 7.93 7.72 12.56 9 6.29 1.71 13.16.09 19.34-4.58a38.48 38.48 0 0 0 13.44-20.69 23.45 23.45 0 0 0-4.26-20.21 18.45 18.45 0 0 0-15.07-7.51 39.35 39.35 0 0 0-18.47 5.77 2 2 0 0 1-2-3.44 43.55 43.55 0 0 1 20.38-6.33 22.61 22.61 0 0 1 18.31 9 27.5 27.5 0 0 1 5 23.72 42.5 42.5 0 0 1-14.89 22.83 27.86 27.86 0 0 1-16.77 6.09Z"/><path fill="#5e1776" d="M833.54 481.77a2 2 0 0 1-.89-3.79c3.89-1.94 5.91-4.61 5.12-6.79-.68-1.88-3.53-3.37-7.48-2.45a2 2 0 0 1-2.43-2.27c1.8-11.1 8.91-13.46 13-13.88 7.48-.76 15.83 3.68 17.42 7.85a2 2 0 0 1-3.73 1.43c-.82-2.14-7.13-5.94-13.28-5.3-4.46.46-7.43 3.11-8.85 7.89 4.7-.09 8.05 2.39 9.12 5.37 1.21 3.36 0 8.2-7.1 11.73a2 2 0 0 1-.9.21ZM1002.05 639.89a2 2 0 0 1-1.22-3.59c23.93-18.22 53.19-47.13 56.67-81.31 2-20.18-5.94-32.71-6-32.84-25.55-42.52-73.19-97.74-137.79-159.75a1.48 1.48 0 0 1-.26-.3c-.08-.12-7.85-11.32-16.48-22.19-16.61-20.9-20.45-20.44-20.62-20.42-2.56 1.63-1.63 13.5 4.46 29.78a2 2 0 0 1-3 2.37c-.12-.08-12.51-8.23-25.57-15.63-25.1-14.23-28.51-12-28.64-11.92-.77 1.11.63 5.63 10.9 15.34 7 6.59 14.63 12.38 14.71 12.44a2 2 0 0 1-2.21 3.33c-15.4-9-33.82-16.05-36.74-11.83a1.77 1.77 0 0 0-.21 1.58c1.47 6 18.4 16.81 28.73 22.23a2 2 0 0 1-1.63 3.65c-13.41-5-29.33-8.32-31.69-4.92-.05.08-.08.11 0 .31 1.38 4.2 19.41 12.09 31.78 16.35a2 2 0 0 1 1.31 2.27 2 2 0 0 1-2.07 1.62c-9.37-.53-20.32.36-23.19 2.65 4.45 4.26 36.16 15.93 65.69 25.22a2 2 0 0 1-1.2 3.82c-.16 0-16.47-5.19-32.86-11-33.95-12.14-35.18-15.45-35.77-17a2.82 2.82 0 0 1 .22-2.5c2.17-3.49 9.55-4.73 16.18-5.11-9.64-3.9-22.21-9.87-23.89-15a4.2 4.2 0 0 1 .52-3.83c2.51-3.62 9-4.05 20.53-1.34-7.46-5-15.27-11.23-16.53-16.39a5.75 5.75 0 0 1 .8-4.81c3.85-5.56 15.82-2 26.16 2.53q-.69-.63-1.38-1.29c-10.58-10-14.2-16.53-11.41-20.56 2-2.95 7.57-4 32.95 10.24 8.48 4.77 16.78 9.93 21.82 13.13-3.09-9.52-7-25.17-.84-29.06 5.09-3.21 15.06 7.91 25.07 20.41 8.43 10.54 16.22 21.68 17.26 23.16 64.79 62.2 112.6 117.66 138.27 160.38.32.5 8.8 13.8 6.6 35.36-3.62 35.62-33.65 65.39-58.21 84.09a2 2 0 0 1-1.22.33Z"/><path fill="#5e1776" d="M969.13 551.63a2 2 0 0 1-1.59-.79c-22.91-30.15-64.32-92.91-81.06-118.49a2 2 0 1 1 3.35-2.19c16.71 25.55 58.06 88.21 80.89 118.26a2 2 0 0 1-.38 2.8 2 2 0 0 1-1.21.41ZM946.6 704.07a2 2 0 0 1-1.16-3.63l66.15-47a1.45 1.45 0 0 1 .34-.2c3.64-1.63 6.26-14.09 4.19-27.72a2 2 0 1 1 4-.6c2 13.24.19 28.68-6.31 31.88l-66 46.9a2 2 0 0 1-1.21.37ZM923.21 720.7h-.28C904 718 888.42 704.9 878 682.85a123.75 123.75 0 0 1-10.07-32.53 2 2 0 0 1 4-.55c.09.61 8.94 60.89 51.61 67a2 2 0 0 1-.28 4Z"/><path fill="#e65c39" d="M1012.18 119.19A62.19 62.19 0 0 0 954 61.05c-36.86-2.32-66.16 27.19-66.16 62.09H911a39 39 0 0 1 41.57-39 39.51 39.51 0 0 1 36.47 36.47 39 39 0 0 1-21.86 37.63c-17.43 8.52-28.7 27-28.7 47.08V219h23.16v-13.66c0-11.3 6.17-21.61 15.71-26.27a62.15 62.15 0 0 0 34.83-59.88ZM950.09 243.77a17 17 0 1 0 17 17 17 17 0 0 0-17-17Z"/><path fill="#ffc804" d="M361.21 959.78a32.41 32.41 0 1 1 32.41-32.41 32.44 32.44 0 0 1-32.41 32.41Zm0-60.82a28.41 28.41 0 1 0 28.41 28.41A28.44 28.44 0 0 0 361.21 899ZM968.53 852.79a2 2 0 0 1-1.41-3.42l52.65-52.65a2 2 0 0 1 2.83 2.83l-52.66 52.65a2 2 0 0 1-1.41.59Z"/><path fill="#ffc804" d="M1021.18 852.79a2 2 0 0 1-1.41-.59l-52.65-52.65a2 2 0 1 1 2.82-2.83l52.66 52.65a2 2 0 0 1-1.42 3.42ZM260.59 253.81h-72.43a2 2 0 0 1-1.73-3l36.22-62.73a2 2 0 0 1 1.73-1 2 2 0 0 1 1.73 1l36.21 62.73a2 2 0 0 1-1.73 3Zm-69-4h65.5l-32.75-56.73Z"/><path fill="#e65c39" d="M573.5 314a1.86 1.86 0 0 1-.61-.1l-165.7-53.09a2 2 0 0 1-1.17-1 2 2 0 0 1-.12-1.52l17.27-53.9a2 2 0 1 1 3.81 1.22l-16.66 52 161.89 51.87 37.53-117.13-161.89-51.86-16.09 50.23a2 2 0 0 1-3.76-1.22l16.7-52.13a2 2 0 0 1 1-1.17 2 2 0 0 1 1.52-.13l165.7 53.09a2 2 0 0 1 1.3 2.52l-38.81 120.94a2 2 0 0 1-1.91 1.38Z"/><path fill="#e65c39" d="M511 246.79a24.79 24.79 0 0 1-7.61-1.19 25.05 25.05 0 0 1-15-13.23l-43.66-93.55a2 2 0 1 1 3.62-1.69L492 230.68a21 21 0 0 0 29.35 9.4l89.9-50.75a2 2 0 0 1 2 3.48l-89.89 50.75a25 25 0 0 1-12.36 3.23Z"/><path fill="#e65c39" d="M407.8 260.92a2 2 0 0 1-1-3.74l75.35-42.54a2 2 0 1 1 2 3.48l-75.34 42.54a2 2 0 0 1-1.01.26ZM573.5 314a2 2 0 0 1-1.81-1.15l-36.59-78.4a2 2 0 0 1 3.62-1.69l36.59 78.41a2 2 0 0 1-1 2.66 2.16 2.16 0 0 1-.81.17Z"/></g></svg>